<?xml version="1.0" standalone="no"?><!DOCTYPE svg PUBLIC "-//W3C//DTD SVG 1.1//EN" "http://www.w3.org/Graphics/SVG/1.1/DTD/svg11.dtd"><svg t="1565345812134" class="icon" viewBox="0 0 1024 1024" version="1.1" xmlns="http://www.w3.org/2000/svg" p-id="1333" xmlns:xlink="http://www.w3.org/1999/xlink" width="200" height="200"><defs><style type="text/css"></style></defs><path d="M512.27133 64.429008c-247.186395 0-447.574064 200.382549-447.574064 447.56792 0.001024 247.191515 200.387669 447.57304 447.574064 447.57304 247.184347 0 447.566897-200.382549 447.566896-447.57304 0-247.185371-200.382549-447.56792-447.566896-447.56792z m171.150623 515.261075s1.968931 12.921433 4.257315 22.540835c0.145392 0.641976-74.167181 2.330363-135.095525 0-31.988225-1.224567-70.4986-7.153887-70.498601-7.153887l176.363224-125.750524s-63.787032-11.492089-128.275425-13.779448c-70.628634-2.508519-142.918009 4.272673-153.250036 6.889724-6.479146 1.645384 45.670405 1.516374 105.163261 6.889724 41.640392 3.760731 96.443854 13.779449 96.443855 13.779449l-176.364248 131.280529s75.53202 4.585982 143.279441 4.138544c76.244645-0.506823 145.065097-9.992097 145.492057-8.162414 13.266482 57.442014 37.760891 170.97861 28.648311 180.247845-12.408466 12.613243-189.413666-99.585134-189.413665-99.585135S351.785496 799.468092 340.759275 790.609436c-11.028269-8.858656 36.16363-210.919353 36.16363-210.919353s-159.762971-133.03342-153.229559-149.370535c6.533412-16.337114 211.771226-30.773897 211.771226-30.773897s76.249764-191.895564 94.707345-191.895564c18.456557 0 94.707345 191.895564 94.707345 191.895564s206.095829 14.518694 211.771225 30.773897c5.675396 16.255203-153.228534 149.370535-153.228534 149.370535z" fill="#F5BE3F" p-id="1334"></path></svg>