<?xml version="1.0" standalone="no"?><!DOCTYPE svg PUBLIC "-//W3C//DTD SVG 1.1//EN" "http://www.w3.org/Graphics/SVG/1.1/DTD/svg11.dtd"><svg class="icon" width="200px" height="200.00px" viewBox="0 0 1024 1024" version="1.1" xmlns="http://www.w3.org/2000/svg"><path fill="#C1CBD8" d="M160.016437 64.021106h223.989447c53.016471 0 95.995331 42.97886 95.995331 95.995331v223.989447c0 53.016471-42.97886 95.995331-95.995331 95.995331H160.016437c-53.016471 0-95.995331-42.97886-95.995331-95.995331V160.016437c0-53.016471 42.97886-95.995331 95.995331-95.995331z m0 479.977679h223.989447c53.016471 0 95.995331 42.97886 95.995331 95.995331v223.989447c0 53.016471-42.97886 95.995331-95.995331 95.995331H160.016437c-53.016471 0-95.995331-42.97886-95.995331-95.995331V639.994116c0-53.017494 42.97886-95.995331 95.995331-95.995331zM639.994116 64.021106h223.989447c53.016471 0 95.995331 42.97886 95.995331 95.995331v223.989447c0 53.016471-42.97886 95.995331-95.995331 95.995331H639.994116c-53.016471 0-95.995331-42.97886-95.995331-95.995331V160.016437c0-53.016471 42.977837-95.995331 95.995331-95.995331z m0 479.977679h223.989447c53.016471 0 95.995331 42.97886 95.995331 95.995331v223.989447c0 53.016471-42.97886 95.995331-95.995331 95.995331H639.994116c-53.016471 0-95.995331-42.97886-95.995331-95.995331V639.994116c0-53.017494 42.977837-95.995331 95.995331-95.995331z" /></svg>