<?xml version="1.0" standalone="no"?><!DOCTYPE svg PUBLIC "-//W3C//DTD SVG 1.1//EN" "http://www.w3.org/Graphics/SVG/1.1/DTD/svg11.dtd"><svg class="icon" width="200px" height="200.00px" viewBox="0 0 1024 1024" version="1.1" xmlns="http://www.w3.org/2000/svg"><path fill="#C1CBD8" d="M512 416.681074c-53.013401 0-95.995331 42.98193-95.995331 95.995331s42.98193 95.995331 95.995331 95.995332 95.995331-42.98193 95.995331-95.995332-42.98193-95.995331-95.995331-95.995331m-351.983563 0c-53.013401 0-95.995331 42.98193-95.995331 95.995331s42.98193 95.995331 95.995331 95.995332 95.995331-42.98193 95.995331-95.995332-42.98193-95.995331-95.995331-95.995331m703.966103 0c-53.013401 0-95.995331 42.98193-95.995331 95.995331s42.98193 95.995331 95.995331 95.995332 95.995331-42.98193 95.995331-95.995332-42.98193-95.995331-95.995331-95.995331" /></svg>