<?xml version="1.0" standalone="no"?><!DOCTYPE svg PUBLIC "-//W3C//DTD SVG 1.1//EN" "http://www.w3.org/Graphics/SVG/1.1/DTD/svg11.dtd"><svg t="1565345825124" class="icon" viewBox="0 0 1024 1024" version="1.1" xmlns="http://www.w3.org/2000/svg" p-id="1574" xmlns:xlink="http://www.w3.org/1999/xlink" width="200" height="200"><defs><style type="text/css"></style></defs><path d="M548.075576 529.902635a17.903659 17.901611 90 1 0 35.803222 0 17.903659 17.901611 90 1 0-35.803222 0Z" fill="#8DC81B" p-id="1575"></path><path d="M512.268258 64.43208c-247.184347 0-447.569968 200.380501-447.569968 447.564848 0 247.189467 200.386645 447.569968 447.569968 447.569969S959.838226 759.186395 959.838226 511.996928c0-247.183323-200.386645-447.564849-447.569968-447.564848zM728.408402 698.415729c-8.022142 4.876766 17.383525 46.020574 8.378454 49.684036-5.530005 2.255619-45.189179-32.570816-51.059114-30.82202-17.846321 5.335466-37.059529 8.233062-57.091845 8.233062-73.276401 0-135.741597-38.850305-159.658534-93.31998a238.774153 238.774153 0 0 1-37.269426 2.907834c-25.405667 0-49.715776-3.975747-72.186987-11.243285-11.297551-3.652199-52.580607 39.573168-62.836867 34.334971-6.107476-3.118755 18.440175-54.215752 12.764779-57.84645-50.735566-32.409042-83.62481-84.466444-83.62481-143.159646 0-98.261251 92.18142-177.921577 205.883885-177.921576 107.217176 0 195.282576 70.822148 204.982866 161.282416 90.196106 3.528309 162.021662 65.939239 162.021661 142.405043 0 47.486777-27.693026 89.553106-70.304062 115.465595z" fill="#8DC81B" p-id="1576" data-spm-anchor-id="a313x.7781069.0.i4" class="selected"></path><path d="M673.392996 529.902635m-17.903659 0a17.903659 17.903659 0 1 0 35.807318 0 17.903659 17.903659 0 1 0-35.807318 0Z" fill="#8DC81B" p-id="1577"></path><path d="M431.707937 315.068968c-93.934311 0-170.076567 63.878158-170.076568 142.685587 0 44.909658 24.737069 88.118643 63.409218 114.274818 2.023197 1.369959 12.19345 6.042971 11.528949 12.705393-1.467228 14.578079-5.83717 24.564033-5.83717 24.564033s11.923145-13.714944 20.803302-20.317981c3.938887-2.940599 11.243285-0.734126 13.287984 0 20.53402 7.375046 43.13936 11.454205 66.883261 11.454205 9.48425 0 18.796487-0.653239 27.8548-1.904426a121.078535 121.078535 0 0 1-1.003408-15.581487c0-70.784264 61.547795-129.521494 142.237126-140.66239-9.18118-71.528629-81.384549-127.217752-169.087494-127.217752z m-71.615659 107.417857c-14.82074 0-26.851393-12.025533-26.851393-26.857535 0-14.830979 12.030653-26.851393 26.851393-26.851393 14.82586 0 26.857536 12.020414 26.857536 26.851393 0 14.830979-12.031676 26.857536-26.857536 26.857535z m143.225174 0c-14.824836 0-26.856512-12.025533-26.856512-26.857535 0-14.830979 12.030653-26.851393 26.856512-26.851393 14.82074 0 26.851393 12.020414 26.851393 26.851393 0 14.830979-12.030653 26.857536-26.851393 26.857535z" fill="#8DC81B" p-id="1578"></path></svg>