<?xml version="1.0" standalone="no"?><!DOCTYPE svg PUBLIC "-//W3C//DTD SVG 1.1//EN" "http://www.w3.org/Graphics/SVG/1.1/DTD/svg11.dtd"><svg t="1566980412830" class="icon" viewBox="0 0 1024 1024" version="1.1" xmlns="http://www.w3.org/2000/svg" p-id="7608" xmlns:xlink="http://www.w3.org/1999/xlink" width="200" height="200"><defs><style type="text/css"></style></defs><path d="M506.055 880.193c0 43.506-63.616 78.773-142.09 78.773s-142.089-35.268-142.089-78.773 63.616-78.773 142.09-78.773 142.089 35.268 142.089 78.773zM659.44 801.42c-78.474 0-142.09 35.268-142.09 78.773s63.617 78.773 142.09 78.773 142.09-35.268 142.09-78.773-63.617-78.773-142.09-78.773z" fill="#FFC817" p-id="7609"></path><path d="M825.904 502.378s-10.753-11.024-22.294-21.221V355.235c0-161.052-130.559-291.61-291.611-291.61s-291.61 130.558-291.61 291.61v125.922c-11.54 10.197-22.294 21.22-22.294 21.22-19.025 28.538-64.208 102.258-64.208 171.816s19.025 81.449 26.16 82.044c6.616 0.551 31.13-6.064 60.262-50.655 39.426 131.1 154.97 226.037 291.393 226.037 136.64 0 252.337-95.236 291.584-226.658 29.31 45.151 54.02 51.83 60.668 51.276 7.134-0.595 26.159-12.486 26.159-82.044s-45.184-143.278-64.209-171.815z" fill="#37474F" p-id="7610"></path><path d="M297.455 552.317a375.359 375.359 0 0 0-3.473 51.129c0 159.246 99.199 288.34 221.567 288.34s221.567-129.094 221.567-288.34a375.523 375.523 0 0 0-3.473-51.129H297.455z m137.852-354.926c-32.506 0-58.857 35.734-58.857 79.813 0 44.08 26.35 79.814 58.857 79.814s58.858-35.734 58.858-79.814c0-44.08-26.352-79.813-58.858-79.813z m9.81 112.66c-11.82 0-21.403-14.639-21.403-32.698s9.582-32.699 21.403-32.699c11.82 0 21.402 14.64 21.402 32.699s-9.582 32.699-21.402 32.699z m145.36-112.66c-32.507 0-58.858 35.734-58.858 79.813 0 44.08 26.351 79.814 58.857 79.814s58.858-35.734 58.858-79.814c-0.001-44.08-26.352-79.813-58.858-79.813z m9.932 82.787l-0.031 0.005c0 0.022 0.023 0.034 0.023 0.056 0 0.896-0.726 1.623-1.623 1.623-0.738 0-1.26-0.545-1.455-1.22l-0.062 0.01v0.15c-3.749-9.332-10.384-15.636-18.08-15.636-7.693 0-14.325 6.297-18.075 15.621l-0.059-0.037-0.055-0.012c-0.264 0.558-0.723 1.003-1.38 1.003a1.648 1.648 0 0 1-1.65-1.649c0-0.016 0.018-0.025 0.018-0.04l-0.036-0.009c-0.058-0.895-0.166-1.768-0.166-2.688 0-18.06 9.582-32.699 21.402-32.699s21.403 14.64 21.403 32.699c0 0.966-0.111 1.884-0.174 2.823z" fill="#FFFFFF" p-id="7611"></path><path d="M281.188 536.266c-5.35 26.753-16.646 146.845-11.296 173.598s27.855 22.286 60.046 22.592c31.212 0.297 67.775 8.918 68.37-30.32 0.594-39.238 0.594-116.525 9.512-145.062 8.917-28.537-126.632-20.808-126.632-20.808z" fill="#FF3B30" p-id="7612"></path><path d="M274.071 593.588l125.538 40.586c1.09-30.821 3.295-61.37 8.211-77.101 8.918-28.537-126.632-20.808-126.632-20.808-1.948 9.74-4.684 31.851-7.117 57.323z" fill="#DD2C00" p-id="7613"></path><path d="M512.595 467.896c97.846 0 177.166-35.672 177.166-57.669 0-16.646-79.32-33.888-177.166-33.888s-177.166 15.458-177.166 33.888c0 20.809 79.319 57.669 177.166 57.669z" fill="#FFC817" p-id="7614"></path><path d="M514.378 489.299s112.363 1.19 202.136-36.86c89.771-38.05 88.88-42.36 98.69-42.36 9.809 0 21.402 14.124 26.307 39.612 4.904 25.487 10.701 45.552-10.256 58.038-20.956 12.484-158.29 93.19-313.013 93.19h-7.729c-154.723 0-292.057-80.706-313.013-93.19s-15.16-32.55-10.255-58.038c4.904-25.488 16.497-39.611 26.307-39.611s8.918 4.31 98.69 42.358S514.377 489.3 514.377 489.3z" fill="#FF3B30" p-id="7615"></path></svg>